<?xml version="1.0" encoding="UTF-8"?><svg xmlns="http://www.w3.org/2000/svg" xmlns:xlink="http://www.w3.org/1999/xlink" contentScriptType="text/ecmascript" width="375" zoomAndPan="magnify" contentStyleType="text/css" viewBox="0 0 375 374.999991" height="374.999991" preserveAspectRatio="xMidYMid meet" version="1.0"><defs><clipPath id="clip-0"><path d="M 37.5 37.5 L 337.5 37.5 L 337.5 337.5 L 37.5 337.5 Z M 37.5 37.5 " clip-rule="nonzero"/></clipPath></defs><path fill="rgb(92.939758%, 86.268616%, 82.348633%)" d="M 102.65625 150.367188 L 102.65625 231.898438 C 102.65625 243.328125 111.957031 252.628906 123.390625 252.628906 L 251.523438 252.628906 C 262.949219 252.628906 272.25 243.328125 272.25 231.898438 L 272.25 152.757812 L 187.332031 215.449219 L 102.65625 150.367188 " fill-opacity="1" fill-rule="nonzero"/><path fill="rgb(92.939758%, 86.268616%, 82.348633%)" d="M 271.113281 136.265625 C 268.253906 127.992188 260.316406 122.28125 251.523438 122.28125 L 123.390625 122.28125 C 115.285156 122.28125 108.003906 126.953125 104.597656 134.269531 L 187.5 197.992188 L 271.113281 136.265625 " fill-opacity="1" fill-rule="nonzero"/><g clip-path="url(#clip-0)"><path fill="rgb(92.939758%, 86.268616%, 82.348633%)" d="M 286.199219 231.898438 C 286.199219 251.019531 270.644531 266.574219 251.523438 266.574219 L 123.390625 266.574219 C 104.269531 266.574219 88.710938 251.019531 88.710938 231.898438 L 88.710938 143.007812 C 88.710938 123.886719 104.269531 108.335938 123.390625 108.335938 L 251.523438 108.335938 C 270.644531 108.335938 286.199219 123.886719 286.199219 143.007812 Z M 187.457031 37.464844 C 104.617188 37.464844 37.464844 104.617188 37.464844 187.457031 C 37.464844 270.292969 104.617188 337.449219 187.457031 337.449219 C 270.292969 337.449219 337.449219 270.292969 337.449219 187.457031 C 337.449219 104.617188 270.292969 37.464844 187.457031 37.464844 " fill-opacity="1" fill-rule="nonzero"/></g></svg>